%TF.GenerationSoftware,KiCad,Pcbnew,8.0.7*%
%TF.CreationDate,2024-12-30T07:44:03-08:00*%
%TF.ProjectId,motion-play-v3,6d6f7469-6f6e-42d7-906c-61792d76332e,rev?*%
%TF.SameCoordinates,Original*%
%TF.FileFunction,Soldermask,Top*%
%TF.FilePolarity,Negative*%
%FSLAX46Y46*%
G04 Gerber Fmt 4.6, Leading zero omitted, Abs format (unit mm)*
G04 Created by KiCad (PCBNEW 8.0.7) date 2024-12-30 07:44:03*
%MOMM*%
%LPD*%
G01*
G04 APERTURE LIST*
G04 Aperture macros list*
%AMRoundRect*
0 Rectangle with rounded corners*
0 $1 Rounding radius*
0 $2 $3 $4 $5 $6 $7 $8 $9 X,Y pos of 4 corners*
0 Add a 4 corners polygon primitive as box body*
4,1,4,$2,$3,$4,$5,$6,$7,$8,$9,$2,$3,0*
0 Add four circle primitives for the rounded corners*
1,1,$1+$1,$2,$3*
1,1,$1+$1,$4,$5*
1,1,$1+$1,$6,$7*
1,1,$1+$1,$8,$9*
0 Add four rect primitives between the rounded corners*
20,1,$1+$1,$2,$3,$4,$5,0*
20,1,$1+$1,$4,$5,$6,$7,0*
20,1,$1+$1,$6,$7,$8,$9,0*
20,1,$1+$1,$8,$9,$2,$3,0*%
G04 Aperture macros list end*
%ADD10RoundRect,0.250000X-0.650000X0.350000X-0.650000X-0.350000X0.650000X-0.350000X0.650000X0.350000X0*%
%ADD11RoundRect,0.150000X-0.625000X0.150000X-0.625000X-0.150000X0.625000X-0.150000X0.625000X0.150000X0*%
%ADD12C,2.000000*%
%ADD13RoundRect,0.200000X-0.200000X-0.275000X0.200000X-0.275000X0.200000X0.275000X-0.200000X0.275000X0*%
%ADD14RoundRect,0.200000X0.275000X-0.200000X0.275000X0.200000X-0.275000X0.200000X-0.275000X-0.200000X0*%
%ADD15RoundRect,0.085050X0.481950X-0.671950X0.481950X0.671950X-0.481950X0.671950X-0.481950X-0.671950X0*%
%ADD16RoundRect,0.113550X1.608450X-0.643450X1.608450X0.643450X-1.608450X0.643450X-1.608450X-0.643450X0*%
%ADD17RoundRect,0.200000X0.200000X0.275000X-0.200000X0.275000X-0.200000X-0.275000X0.200000X-0.275000X0*%
%ADD18RoundRect,0.225000X0.250000X-0.225000X0.250000X0.225000X-0.250000X0.225000X-0.250000X-0.225000X0*%
%ADD19C,2.200000*%
%ADD20C,3.351600*%
%ADD21RoundRect,0.225000X-0.250000X0.225000X-0.250000X-0.225000X0.250000X-0.225000X0.250000X0.225000X0*%
%ADD22RoundRect,0.076750X-0.230250X0.810250X-0.230250X-0.810250X0.230250X-0.810250X0.230250X0.810250X0*%
%ADD23RoundRect,0.250000X1.000000X0.650000X-1.000000X0.650000X-1.000000X-0.650000X1.000000X-0.650000X0*%
%ADD24RoundRect,0.250000X1.500000X-0.250000X1.500000X0.250000X-1.500000X0.250000X-1.500000X-0.250000X0*%
%ADD25RoundRect,0.250001X1.449999X-0.499999X1.449999X0.499999X-1.449999X0.499999X-1.449999X-0.499999X0*%
G04 APERTURE END LIST*
D10*
%TO.C,J5*%
X136437500Y-72450000D03*
X136437500Y-67850000D03*
D11*
X140312500Y-71150000D03*
X140312500Y-70150000D03*
X140312500Y-69150000D03*
%TD*%
D12*
%TO.C,13*%
X169169068Y-140135000D03*
%TD*%
D11*
%TO.C,J10*%
X140312500Y-99700000D03*
X140312500Y-100700000D03*
D10*
X136437500Y-98400000D03*
X136437500Y-102000000D03*
%TD*%
D12*
%TO.C,1*%
X169169068Y-120635000D03*
%TD*%
%TO.C,12*%
X169169068Y-136885000D03*
%TD*%
D10*
%TO.C,J4*%
X136412500Y-66450000D03*
X136412500Y-61850000D03*
D11*
X140287500Y-65150000D03*
X140287500Y-64150000D03*
X140287500Y-63150000D03*
%TD*%
D13*
%TO.C,R15*%
X142350000Y-76150000D03*
X144000000Y-76150000D03*
%TD*%
D12*
%TO.C,2*%
X169169068Y-123885000D03*
%TD*%
%TO.C,12*%
X169169068Y-133635000D03*
%TD*%
D14*
%TO.C,R2*%
X137000000Y-108025000D03*
X137000000Y-106375000D03*
%TD*%
D15*
%TO.C,U4*%
X152607500Y-101582500D03*
X154897500Y-101582500D03*
X157187500Y-101582500D03*
D16*
X154897500Y-94892500D03*
%TD*%
D17*
%TO.C,R9*%
X144025000Y-95900000D03*
X142375000Y-95900000D03*
%TD*%
D12*
%TO.C,3*%
X169169068Y-127135000D03*
%TD*%
D13*
%TO.C,R11*%
X142325000Y-64150000D03*
X143975000Y-64150000D03*
%TD*%
D11*
%TO.C,J9*%
X140312500Y-93250000D03*
X140312500Y-94250000D03*
X140312500Y-95250000D03*
D10*
X136437500Y-91950000D03*
X136437500Y-96550000D03*
%TD*%
%TO.C,J7*%
X136437500Y-84450000D03*
X136437500Y-79850000D03*
D11*
X140312500Y-83150000D03*
X140312500Y-82150000D03*
X140312500Y-81150000D03*
%TD*%
D17*
%TO.C,R8*%
X142375000Y-90000000D03*
X144025000Y-90000000D03*
%TD*%
D13*
%TO.C,R18*%
X144025000Y-87000000D03*
X142375000Y-87000000D03*
%TD*%
D18*
%TO.C,C3*%
X161497500Y-100225000D03*
X161497500Y-101775000D03*
%TD*%
D12*
%TO.C,18*%
X169169068Y-107685000D03*
%TD*%
D19*
%TO.C,J2*%
X147747500Y-68887500D03*
X147747500Y-74887500D03*
X162497500Y-80887500D03*
X167497500Y-80887500D03*
D20*
X158997500Y-61887500D03*
%TD*%
D12*
%TO.C,17*%
X169169068Y-110935000D03*
%TD*%
D10*
%TO.C,J8*%
X136437500Y-90550000D03*
X136437500Y-85950000D03*
D11*
X140312500Y-89250000D03*
X140312500Y-88250000D03*
X140312500Y-87250000D03*
%TD*%
D12*
%TO.C,5V*%
X169100000Y-99800000D03*
%TD*%
%TO.C,16*%
X169169068Y-117435000D03*
%TD*%
D18*
%TO.C,C4*%
X150297500Y-101775000D03*
X150297500Y-100225000D03*
%TD*%
D12*
%TO.C,21*%
X169169068Y-114185000D03*
%TD*%
D17*
%TO.C,R3*%
X143975000Y-65650000D03*
X142325000Y-65650000D03*
%TD*%
D14*
%TO.C,R6*%
X154800000Y-82825000D03*
X154800000Y-81175000D03*
%TD*%
D17*
%TO.C,R4*%
X144000000Y-71750000D03*
X142350000Y-71750000D03*
%TD*%
%TO.C,R7*%
X142350000Y-83550000D03*
X144000000Y-83550000D03*
%TD*%
D13*
%TO.C,R16*%
X144000000Y-80550000D03*
X142350000Y-80550000D03*
%TD*%
%TO.C,R13*%
X142350000Y-70250000D03*
X144000000Y-70250000D03*
%TD*%
%TO.C,R10*%
X142325000Y-62650000D03*
X143975000Y-62650000D03*
%TD*%
D21*
%TO.C,C1*%
X159497500Y-101775000D03*
X159497500Y-100225000D03*
%TD*%
D13*
%TO.C,R14*%
X142350000Y-74650000D03*
X144000000Y-74650000D03*
%TD*%
%TO.C,R20*%
X144025000Y-92900000D03*
X142375000Y-92900000D03*
%TD*%
D22*
%TO.C,U3*%
X156075000Y-91025000D03*
X155425000Y-91025000D03*
X154775000Y-91025000D03*
X154125000Y-91025000D03*
X153475000Y-91025000D03*
X152825000Y-91025000D03*
X152175000Y-91025000D03*
X151525000Y-91025000D03*
X150875000Y-91025000D03*
X150225000Y-91025000D03*
X149575000Y-91025000D03*
X148925000Y-91025000D03*
X148925000Y-85285000D03*
X149575000Y-85285000D03*
X150225000Y-85285000D03*
X150875000Y-85285000D03*
X151525000Y-85285000D03*
X152175000Y-85285000D03*
X152825000Y-85285000D03*
X153475000Y-85285000D03*
X154125000Y-85285000D03*
X154775000Y-85285000D03*
X155425000Y-85285000D03*
X156075000Y-85285000D03*
%TD*%
D10*
%TO.C,J6*%
X136412500Y-78450000D03*
X136412500Y-73850000D03*
D11*
X140287500Y-77150000D03*
X140287500Y-76150000D03*
X140287500Y-75150000D03*
%TD*%
D13*
%TO.C,R19*%
X144025000Y-88500000D03*
X142375000Y-88500000D03*
%TD*%
D14*
%TO.C,R1*%
X138900000Y-108025000D03*
X138900000Y-106375000D03*
%TD*%
D13*
%TO.C,R12*%
X142350000Y-68750000D03*
X144000000Y-68750000D03*
%TD*%
D18*
%TO.C,C2*%
X148497500Y-100225000D03*
X148497500Y-101775000D03*
%TD*%
D13*
%TO.C,R21*%
X142375000Y-94400000D03*
X144025000Y-94400000D03*
%TD*%
D23*
%TO.C,D1*%
X160497500Y-96600000D03*
X164497500Y-96600000D03*
%TD*%
D12*
%TO.C,U2*%
X164700000Y-112100000D03*
X164700000Y-114640000D03*
X164700000Y-117180000D03*
X164700000Y-119720000D03*
X164700000Y-122260000D03*
X164700000Y-124800000D03*
X164700000Y-127340000D03*
X164700000Y-129880000D03*
X164700000Y-132420000D03*
X164700000Y-134960000D03*
X164700000Y-137500000D03*
X164700000Y-140040000D03*
X141838136Y-112100000D03*
X141838136Y-114640000D03*
X141838136Y-117180000D03*
X141838136Y-119720000D03*
X141838136Y-122260000D03*
X141838136Y-124800000D03*
X141838136Y-127340000D03*
X141838136Y-129880000D03*
X141838136Y-132420000D03*
X141838136Y-134960000D03*
X141838136Y-137500000D03*
X141838136Y-140040000D03*
%TD*%
D24*
%TO.C,J3*%
X164247500Y-90200000D03*
X164247500Y-88200000D03*
X164247500Y-86200000D03*
D25*
X169997500Y-92550000D03*
X169997500Y-83850000D03*
%TD*%
D13*
%TO.C,R17*%
X144000000Y-82050000D03*
X142350000Y-82050000D03*
%TD*%
D12*
%TO.C,10*%
X169169068Y-130385000D03*
%TD*%
D17*
%TO.C,R5*%
X144000000Y-77650000D03*
X142350000Y-77650000D03*
%TD*%
M02*
