%TF.GenerationSoftware,KiCad,Pcbnew,8.0.7*%
%TF.CreationDate,2024-12-30T07:44:03-08:00*%
%TF.ProjectId,motion-play-v3,6d6f7469-6f6e-42d7-906c-61792d76332e,rev?*%
%TF.SameCoordinates,Original*%
%TF.FileFunction,Copper,L2,Inr*%
%TF.FilePolarity,Positive*%
%FSLAX46Y46*%
G04 Gerber Fmt 4.6, Leading zero omitted, Abs format (unit mm)*
G04 Created by KiCad (PCBNEW 8.0.7) date 2024-12-30 07:44:03*
%MOMM*%
%LPD*%
G01*
G04 APERTURE LIST*
%TA.AperFunction,ComponentPad*%
%ADD10C,2.200000*%
%TD*%
%TA.AperFunction,WasherPad*%
%ADD11C,3.250000*%
%TD*%
%TA.AperFunction,ComponentPad*%
%ADD12C,2.000000*%
%TD*%
%TA.AperFunction,ViaPad*%
%ADD13C,0.600000*%
%TD*%
G04 APERTURE END LIST*
D10*
%TO.N,N/C*%
%TO.C,J2*%
X147747500Y-68887500D03*
X147747500Y-74887500D03*
%TO.N,/+5V*%
X162497500Y-80887500D03*
%TO.N,/GND*%
X167497500Y-80887500D03*
D11*
%TO.N,*%
X158997500Y-61887500D03*
%TD*%
D12*
%TO.N,Net-(3V2-Pad1)*%
%TO.C,U2*%
X164700000Y-112100000D03*
%TO.N,Net-(U2-1)*%
X164700000Y-114640000D03*
%TO.N,Net-(J3-Pin_2)*%
X164700000Y-117180000D03*
%TO.N,Net-(U2-3)*%
X164700000Y-119720000D03*
%TO.N,Net-(U2-10)*%
X164700000Y-122260000D03*
%TO.N,Net-(J4-Pin_3)*%
X164700000Y-124800000D03*
%TO.N,Net-(J6-Pin_3)*%
X164700000Y-127340000D03*
%TO.N,Net-(J8-Pin_3)*%
X164700000Y-129880000D03*
%TO.N,unconnected-(U2-NC-Pad9)*%
X164700000Y-132420000D03*
%TO.N,unconnected-(U2-NC-Pad10)*%
X164700000Y-134960000D03*
%TO.N,/GND*%
X164700000Y-137500000D03*
%TO.N,/+5V*%
X164700000Y-140040000D03*
%TO.N,/GND*%
X141838136Y-112100000D03*
X141838136Y-114640000D03*
%TO.N,/SDA*%
X141838136Y-117180000D03*
%TO.N,/SCL*%
X141838136Y-119720000D03*
%TO.N,Net-(U2-18)*%
X141838136Y-122260000D03*
%TO.N,Net-(U2-17)*%
X141838136Y-124800000D03*
%TO.N,Net-(U2-21)*%
X141838136Y-127340000D03*
%TO.N,Net-(U2-16)*%
X141838136Y-129880000D03*
%TO.N,unconnected-(U2-NC-Pad21)*%
X141838136Y-132420000D03*
%TO.N,/GND*%
X141838136Y-134960000D03*
X141838136Y-137500000D03*
%TO.N,Net-(3V1-Pad1)*%
X141838136Y-140040000D03*
%TD*%
D13*
%TO.N,/+3.3V*%
X156100000Y-93300000D03*
%TO.N,Net-(U2-18)*%
X167200000Y-109400000D03*
%TO.N,Net-(U2-17)*%
X167100000Y-110300000D03*
%TO.N,Net-(U2-21)*%
X167200000Y-114200000D03*
%TO.N,/GND*%
X161400000Y-86200000D03*
%TO.N,/+3.3V*%
X137000000Y-105500000D03*
X138900000Y-105500000D03*
%TO.N,/GND*%
X141500000Y-100700000D03*
%TO.N,/+3.3V*%
X141500000Y-99700000D03*
X156075000Y-89922500D03*
%TO.N,/GND*%
X154125001Y-90049173D03*
X148875000Y-86322500D03*
X155475000Y-87022500D03*
X156075000Y-86422500D03*
%TO.N,/+3.3V*%
X144800000Y-65700000D03*
X144700000Y-71800000D03*
X144800000Y-77700000D03*
X144800000Y-83600000D03*
X144600000Y-90000000D03*
X144800000Y-95900000D03*
X147197500Y-100200000D03*
%TO.N,/GND*%
X151097500Y-100200000D03*
X152597500Y-100400000D03*
X162597500Y-100200000D03*
%TO.N,/+5V*%
X160497500Y-94900000D03*
X161397500Y-90200000D03*
%TD*%
%TA.AperFunction,Conductor*%
%TO.N,/GND*%
G36*
X157605619Y-60070185D02*
G01*
X157651374Y-60122989D01*
X157661318Y-60192147D01*
X157632293Y-60255703D01*
X157616840Y-60270683D01*
X157571563Y-60307518D01*
X157543346Y-60330475D01*
X157344867Y-60542994D01*
X157177192Y-60780536D01*
X157177188Y-60780542D01*
X157043409Y-61038723D01*
X156946037Y-61312701D01*
X156946032Y-61312717D01*
X156886876Y-61597398D01*
X156886875Y-61597400D01*
X156867033Y-61887500D01*
X156886875Y-62177599D01*
X156886876Y-62177601D01*
X156946032Y-62462282D01*
X156946037Y-62462298D01*
X157043410Y-62736276D01*
X157043409Y-62736276D01*
X157177188Y-62994457D01*
X157177192Y-62994463D01*
X157344867Y-63232005D01*
X157344871Y-63232009D01*
X157344873Y-63232012D01*
X157543343Y-63444522D01*
X157543348Y-63444526D01*
X157543350Y-63444528D01*
X157768895Y-63628022D01*
X157768898Y-63628024D01*
X157768902Y-63628027D01*
X157899240Y-63707287D01*
X158017348Y-63779111D01*
X158284045Y-63894954D01*
X158284050Y-63894956D01*
X158564044Y-63973406D01*
X158817301Y-64008215D01*
X158852111Y-64013000D01*
X158852112Y-64013000D01*
X159142889Y-64013000D01*
X159173945Y-64008731D01*
X159430956Y-63973406D01*
X159710950Y-63894956D01*
X159977653Y-63779110D01*
X160226098Y-63628027D01*
X160451657Y-63444522D01*
X160650127Y-63232012D01*
X160817812Y-62994456D01*
X160951588Y-62736280D01*
X160951588Y-62736279D01*
X160951590Y-62736276D01*
X161048962Y-62462298D01*
X161048967Y-62462282D01*
X161081501Y-62305715D01*
X161108124Y-62177599D01*
X161127967Y-61887500D01*
X161108124Y-61597401D01*
X161090967Y-61514838D01*
X161048967Y-61312717D01*
X161048962Y-61312701D01*
X160951589Y-61038723D01*
X160951590Y-61038723D01*
X160817811Y-60780542D01*
X160817807Y-60780536D01*
X160650132Y-60542994D01*
X160650128Y-60542990D01*
X160650127Y-60542988D01*
X160451657Y-60330478D01*
X160378163Y-60270686D01*
X160338585Y-60213111D01*
X160336416Y-60143275D01*
X160372347Y-60083353D01*
X160434971Y-60052369D01*
X160456420Y-60050500D01*
X170888000Y-60050500D01*
X170955039Y-60070185D01*
X171000794Y-60122989D01*
X171012000Y-60174500D01*
X171012000Y-141575500D01*
X170992315Y-141642539D01*
X170939511Y-141688294D01*
X170888000Y-141699500D01*
X165230333Y-141699500D01*
X165163294Y-141679815D01*
X165117539Y-141627011D01*
X165107595Y-141557853D01*
X165136620Y-141494297D01*
X165190070Y-141458219D01*
X165243650Y-141439824D01*
X165304810Y-141418828D01*
X165523509Y-141300474D01*
X165719744Y-141147738D01*
X165888164Y-140964785D01*
X166024173Y-140756607D01*
X166124063Y-140528881D01*
X166185108Y-140287821D01*
X166205643Y-140040000D01*
X166185108Y-139792179D01*
X166124063Y-139551119D01*
X166024173Y-139323393D01*
X165888166Y-139115217D01*
X165867860Y-139093159D01*
X165719744Y-138932262D01*
X165673255Y-138896078D01*
X165616254Y-138851712D01*
X165575441Y-138795002D01*
X165568655Y-138746176D01*
X165570055Y-138723608D01*
X164829408Y-137982962D01*
X164892993Y-137965925D01*
X165007007Y-137900099D01*
X165100099Y-137807007D01*
X165165925Y-137692993D01*
X165182962Y-137629409D01*
X165923435Y-138369882D01*
X166023733Y-138216364D01*
X166123587Y-137988717D01*
X166184612Y-137747738D01*
X166184614Y-137747729D01*
X166205141Y-137500005D01*
X166205141Y-137499994D01*
X166184614Y-137252270D01*
X166184612Y-137252261D01*
X166123587Y-137011282D01*
X166023732Y-136783632D01*
X165923435Y-136630116D01*
X165182962Y-137370590D01*
X165165925Y-137307007D01*
X165100099Y-137192993D01*
X165007007Y-137099901D01*
X164892993Y-137034075D01*
X164829409Y-137017037D01*
X165570055Y-136276389D01*
X165568654Y-136253825D01*
X165584146Y-136185694D01*
X165616249Y-136148290D01*
X165719744Y-136067738D01*
X165888164Y-135884785D01*
X166024173Y-135676607D01*
X166124063Y-135448881D01*
X166185108Y-135207821D01*
X166205643Y-134960000D01*
X166189651Y-134767007D01*
X166185109Y-134712187D01*
X166185107Y-134712175D01*
X166124063Y-134471118D01*
X166024173Y-134243393D01*
X165888166Y-134035217D01*
X165782561Y-133920500D01*
X165719744Y-133852262D01*
X165636991Y-133787852D01*
X165596179Y-133731143D01*
X165592504Y-133661370D01*
X165627136Y-133600687D01*
X165636985Y-133592151D01*
X165719744Y-133527738D01*
X165888164Y-133344785D01*
X166024173Y-133136607D01*
X166124063Y-132908881D01*
X166185108Y-132667821D01*
X166205643Y-132420000D01*
X166185108Y-132172179D01*
X166124063Y-131931119D01*
X166024173Y-131703393D01*
X165888166Y-131495217D01*
X165866557Y-131471744D01*
X165719744Y-131312262D01*
X165636991Y-131247852D01*
X165596179Y-131191143D01*
X165592504Y-131121370D01*
X165627136Y-131060687D01*
X165636985Y-131052151D01*
X165719744Y-130987738D01*
X165888164Y-130804785D01*
X166024173Y-130596607D01*
X166124063Y-130368881D01*
X166185108Y-130127821D01*
X166205643Y-129880000D01*
X166185108Y-129632179D01*
X166124063Y-129391119D01*
X166024173Y-129163393D01*
X165888166Y-128955217D01*
X165866557Y-128931744D01*
X165719744Y-128772262D01*
X165636991Y-128707852D01*
X165596179Y-128651143D01*
X165592504Y-128581370D01*
X165627136Y-128520687D01*
X165636985Y-128512151D01*
X165719744Y-128447738D01*
X165888164Y-128264785D01*
X166024173Y-128056607D01*
X166124063Y-127828881D01*
X166185108Y-127587821D01*
X166205643Y-127340000D01*
X166185108Y-127092179D01*
X166124063Y-126851119D01*
X166024173Y-126623393D01*
X165888166Y-126415217D01*
X165866557Y-126391744D01*
X165719744Y-126232262D01*
X165636991Y-126167852D01*
X165596179Y-126111143D01*
X165592504Y-126041370D01*
X165627136Y-125980687D01*
X165636985Y-125972151D01*
X165719744Y-125907738D01*
X165888164Y-125724785D01*
X166024173Y-125516607D01*
X166124063Y-125288881D01*
X166185108Y-125047821D01*
X166205643Y-124800000D01*
X166185108Y-124552179D01*
X166124063Y-124311119D01*
X166024173Y-124083393D01*
X165888166Y-123875217D01*
X165866557Y-123851744D01*
X165719744Y-123692262D01*
X165636991Y-123627852D01*
X165596179Y-123571143D01*
X165592504Y-123501370D01*
X165627136Y-123440687D01*
X165636985Y-123432151D01*
X165719744Y-123367738D01*
X165888164Y-123184785D01*
X166024173Y-122976607D01*
X166124063Y-122748881D01*
X166185108Y-122507821D01*
X166205643Y-122260000D01*
X166185108Y-122012179D01*
X166124063Y-121771119D01*
X166024173Y-121543393D01*
X165888166Y-121335217D01*
X165866557Y-121311744D01*
X165719744Y-121152262D01*
X165636991Y-121087852D01*
X165596179Y-121031143D01*
X165592504Y-120961370D01*
X165627136Y-120900687D01*
X165636985Y-120892151D01*
X165719744Y-120827738D01*
X165888164Y-120644785D01*
X166024173Y-120436607D01*
X166124063Y-120208881D01*
X166185108Y-119967821D01*
X166205643Y-119720000D01*
X166185108Y-119472179D01*
X166124063Y-119231119D01*
X166024173Y-119003393D01*
X165888166Y-118795217D01*
X165866557Y-118771744D01*
X165719744Y-118612262D01*
X165636991Y-118547852D01*
X165596179Y-118491143D01*
X165592504Y-118421370D01*
X165627136Y-118360687D01*
X165636985Y-118352151D01*
X165719744Y-118287738D01*
X165888164Y-118104785D01*
X166024173Y-117896607D01*
X166124063Y-117668881D01*
X166185108Y-117427821D01*
X166205643Y-117180000D01*
X166185108Y-116932179D01*
X166124063Y-116691119D01*
X166024173Y-116463393D01*
X165888166Y-116255217D01*
X165866557Y-116231744D01*
X165719744Y-116072262D01*
X165636991Y-116007852D01*
X165596179Y-115951143D01*
X165592504Y-115881370D01*
X165627136Y-115820687D01*
X165636985Y-115812151D01*
X165719744Y-115747738D01*
X165888164Y-115564785D01*
X166024173Y-115356607D01*
X166124063Y-115128881D01*
X166185108Y-114887821D01*
X166189651Y-114832993D01*
X166205643Y-114640005D01*
X166205643Y-114639994D01*
X166192706Y-114483869D01*
X166206787Y-114415433D01*
X166255632Y-114365474D01*
X166323733Y-114349853D01*
X166389469Y-114373530D01*
X166431968Y-114428988D01*
X166433323Y-114432674D01*
X166474209Y-114549519D01*
X166531062Y-114640000D01*
X166570184Y-114702262D01*
X166697738Y-114829816D01*
X166850478Y-114925789D01*
X166911116Y-114947007D01*
X167020745Y-114985368D01*
X167020750Y-114985369D01*
X167199996Y-115005565D01*
X167200000Y-115005565D01*
X167200004Y-115005565D01*
X167379249Y-114985369D01*
X167379252Y-114985368D01*
X167379255Y-114985368D01*
X167549522Y-114925789D01*
X167702262Y-114829816D01*
X167829816Y-114702262D01*
X167925789Y-114549522D01*
X167985368Y-114379255D01*
X167988681Y-114349853D01*
X168005565Y-114200003D01*
X168005565Y-114199996D01*
X167985369Y-114020750D01*
X167985368Y-114020745D01*
X167925788Y-113850476D01*
X167875294Y-113770116D01*
X167829816Y-113697738D01*
X167702262Y-113570184D01*
X167641908Y-113532261D01*
X167549523Y-113474211D01*
X167379254Y-113414631D01*
X167379249Y-113414630D01*
X167200004Y-113394435D01*
X167199996Y-113394435D01*
X167020750Y-113414630D01*
X167020745Y-113414631D01*
X166850476Y-113474211D01*
X166697737Y-113570184D01*
X166570184Y-113697737D01*
X166474211Y-113850476D01*
X166414631Y-114020745D01*
X166414630Y-114020750D01*
X166394435Y-114199996D01*
X166394435Y-114200003D01*
X166397114Y-114223781D01*
X166385059Y-114292603D01*
X166337710Y-114343982D01*
X166270100Y-114361606D01*
X166203694Y-114339879D01*
X166159576Y-114285700D01*
X166153688Y-114268104D01*
X166124063Y-114151118D01*
X166024173Y-113923393D01*
X165888166Y-113715217D01*
X165866557Y-113691744D01*
X165719744Y-113532262D01*
X165636991Y-113467852D01*
X165596179Y-113411143D01*
X165592504Y-113341370D01*
X165627136Y-113280687D01*
X165636985Y-113272151D01*
X165719744Y-113207738D01*
X165888164Y-113024785D01*
X166024173Y-112816607D01*
X166124063Y-112588881D01*
X166185108Y-112347821D01*
X166205643Y-112100000D01*
X166189651Y-111907007D01*
X166185109Y-111852187D01*
X166185107Y-111852175D01*
X166124063Y-111611118D01*
X166024173Y-111383393D01*
X165888166Y-111175217D01*
X165866557Y-111151744D01*
X165719744Y-110992262D01*
X165523509Y-110839526D01*
X165523507Y-110839525D01*
X165523506Y-110839524D01*
X165304811Y-110721172D01*
X165304802Y-110721169D01*
X165069616Y-110640429D01*
X164824335Y-110599500D01*
X164575665Y-110599500D01*
X164330383Y-110640429D01*
X164095197Y-110721169D01*
X164095188Y-110721172D01*
X163876493Y-110839524D01*
X163680257Y-110992261D01*
X163511833Y-111175217D01*
X163375826Y-111383393D01*
X163275936Y-111611118D01*
X163214892Y-111852175D01*
X163214890Y-111852187D01*
X163194357Y-112099994D01*
X163194357Y-112100005D01*
X163214890Y-112347812D01*
X163214892Y-112347824D01*
X163275936Y-112588881D01*
X163375826Y-112816606D01*
X163511833Y-113024782D01*
X163511836Y-113024785D01*
X163680256Y-113207738D01*
X163763008Y-113272147D01*
X163803821Y-113328857D01*
X163807496Y-113398630D01*
X163772864Y-113459313D01*
X163763014Y-113467848D01*
X163754840Y-113474211D01*
X163680257Y-113532261D01*
X163511833Y-113715217D01*
X163375826Y-113923393D01*
X163275936Y-114151118D01*
X163214892Y-114392175D01*
X163214890Y-114392187D01*
X163194357Y-114639994D01*
X163194357Y-114640005D01*
X163214890Y-114887812D01*
X163214892Y-114887824D01*
X163275936Y-115128881D01*
X163375826Y-115356606D01*
X163511833Y-115564782D01*
X163511836Y-115564785D01*
X163680256Y-115747738D01*
X163763008Y-115812147D01*
X163803821Y-115868857D01*
X163807496Y-115938630D01*
X163772864Y-115999313D01*
X163763014Y-116007848D01*
X163704400Y-116053469D01*
X163680257Y-116072261D01*
X163511833Y-116255217D01*
X163375826Y-116463393D01*
X163275936Y-116691118D01*
X163214892Y-116932175D01*
X163214890Y-116932187D01*
X163194357Y-117179994D01*
X163194357Y-117180005D01*
X163214890Y-117427812D01*
X163214892Y-117427824D01*
X163275936Y-117668881D01*
X163375826Y-117896606D01*
X163511833Y-118104782D01*
X163511836Y-118104785D01*
X163680256Y-118287738D01*
X163763008Y-118352147D01*
X163803821Y-118408857D01*
X163807496Y-118478630D01*
X163772864Y-118539313D01*
X163763014Y-118547848D01*
X163704400Y-118593469D01*
X163680257Y-118612261D01*
X163511833Y-118795217D01*
X163375826Y-119003393D01*
X163275936Y-119231118D01*
X163214892Y-119472175D01*
X163214890Y-119472187D01*
X163194357Y-119719994D01*
X163194357Y-119720005D01*
X163214890Y-119967812D01*
X163214892Y-119967824D01*
X163275936Y-120208881D01*
X163375826Y-120436606D01*
X163511833Y-120644782D01*
X163511836Y-120644785D01*
X163680256Y-120827738D01*
X163763008Y-120892147D01*
X163803821Y-120948857D01*
X163807496Y-121018630D01*
X163772864Y-121079313D01*
X163763014Y-121087848D01*
X163704400Y-121133469D01*
X163680257Y-121152261D01*
X163511833Y-121335217D01*
X163375826Y-121543393D01*
X163275936Y-121771118D01*
X163214892Y-122012175D01*
X163214890Y-122012187D01*
X163194357Y-122259994D01*
X163194357Y-122260005D01*
X163214890Y-122507812D01*
X163214892Y-122507824D01*
X163275936Y-122748881D01*
X163375826Y-122976606D01*
X163511833Y-123184782D01*
X163511836Y-123184785D01*
X163680256Y-123367738D01*
X163763008Y-123432147D01*
X163803821Y-123488857D01*
X163807496Y-123558630D01*
X163772864Y-123619313D01*
X163763014Y-123627848D01*
X163704400Y-123673469D01*
X163680257Y-123692261D01*
X163511833Y-123875217D01*
X163375826Y-124083393D01*
X163275936Y-124311118D01*
X163214892Y-124552175D01*
X163214890Y-124552187D01*
X163194357Y-124799994D01*
X163194357Y-124800005D01*
X163214890Y-125047812D01*
X163214892Y-125047824D01*
X163275936Y-125288881D01*
X163375826Y-125516606D01*
X163511833Y-125724782D01*
X163511836Y-125724785D01*
X163680256Y-125907738D01*
X163763008Y-125972147D01*
X163803821Y-126028857D01*
X163807496Y-126098630D01*
X163772864Y-126159313D01*
X163763014Y-126167848D01*
X163704400Y-126213469D01*
X163680257Y-126232261D01*
X163511833Y-126415217D01*
X163375826Y-126623393D01*
X163275936Y-126851118D01*
X163214892Y-127092175D01*
X163214890Y-127092187D01*
X163194357Y-127339994D01*
X163194357Y-127340005D01*
X163214890Y-127587812D01*
X163214892Y-127587824D01*
X163275936Y-127828881D01*
X163375826Y-128056606D01*
X163511833Y-128264782D01*
X163511836Y-128264785D01*
X163680256Y-128447738D01*
X163763008Y-128512147D01*
X163803821Y-128568857D01*
X163807496Y-128638630D01*
X163772864Y-128699313D01*
X163763014Y-128707848D01*
X163704400Y-128753469D01*
X163680257Y-128772261D01*
X163511833Y-128955217D01*
X163375826Y-129163393D01*
X163275936Y-129391118D01*
X163214892Y-129632175D01*
X163214890Y-129632187D01*
X163194357Y-129879994D01*
X163194357Y-129880005D01*
X163214890Y-130127812D01*
X163214892Y-130127824D01*
X163275936Y-130368881D01*
X163375826Y-130596606D01*
X163511833Y-130804782D01*
X163511836Y-130804785D01*
X163680256Y-130987738D01*
X163763008Y-131052147D01*
X163803821Y-131108857D01*
X163807496Y-131178630D01*
X163772864Y-131239313D01*
X163763014Y-131247848D01*
X163704400Y-131293469D01*
X163680257Y-131312261D01*
X163511833Y-131495217D01*
X163375826Y-131703393D01*
X163275936Y-131931118D01*
X163214892Y-132172175D01*
X163214890Y-132172187D01*
X163194357Y-132419994D01*
X163194357Y-132420005D01*
X163214890Y-132667812D01*
X163214892Y-132667824D01*
X163275936Y-132908881D01*
X163375826Y-133136606D01*
X163511833Y-133344782D01*
X163511836Y-133344785D01*
X163680256Y-133527738D01*
X163763008Y-133592147D01*
X163803821Y-133648857D01*
X163807496Y-133718630D01*
X163772864Y-133779313D01*
X163763014Y-133787848D01*
X163748908Y-133798828D01*
X163680257Y-133852261D01*
X163511833Y-134035217D01*
X163375826Y-134243393D01*
X163275936Y-134471118D01*
X163214892Y-134712175D01*
X163214890Y-134712187D01*
X163194357Y-134959994D01*
X163194357Y-134960005D01*
X163214890Y-135207812D01*
X163214892Y-135207824D01*
X163275936Y-135448881D01*
X163375826Y-135676606D01*
X163511833Y-135884782D01*
X163511836Y-135884785D01*
X163680256Y-136067738D01*
X163757502Y-136127861D01*
X163783745Y-136148287D01*
X163824558Y-136204997D01*
X163831344Y-136253823D01*
X163829943Y-136276389D01*
X164570591Y-137017037D01*
X164507007Y-137034075D01*
X164392993Y-137099901D01*
X164299901Y-137192993D01*
X164234075Y-137307007D01*
X164217037Y-137370590D01*
X163476563Y-136630117D01*
X163376267Y-136783633D01*
X163376265Y-136783637D01*
X163276412Y-137011282D01*
X163215387Y-137252261D01*
X163215385Y-137252270D01*
X163194859Y-137499994D01*
X163194859Y-137500005D01*
X163215385Y-137747729D01*
X163215387Y-137747738D01*
X163276412Y-137988717D01*
X163376267Y-138216367D01*
X163476562Y-138369881D01*
X164217037Y-137629408D01*
X164234075Y-137692993D01*
X164299901Y-137807007D01*
X164392993Y-137900099D01*
X164507007Y-137965925D01*
X164570591Y-137982962D01*
X163829943Y-138723609D01*
X163831344Y-138746176D01*
X163815851Y-138814306D01*
X163783745Y-138851712D01*
X163680258Y-138932260D01*
X163511833Y-139115217D01*
X163375826Y-139323393D01*
X163275936Y-139551118D01*
X163214892Y-139792175D01*
X163214890Y-139792187D01*
X163194357Y-140039994D01*
X163194357Y-140040005D01*
X163214890Y-140287812D01*
X163214892Y-140287824D01*
X163275936Y-140528881D01*
X163375826Y-140756606D01*
X163511833Y-140964782D01*
X163511836Y-140964785D01*
X163680256Y-141147738D01*
X163876491Y-141300474D01*
X164095190Y-141418828D01*
X164138948Y-141433850D01*
X164209930Y-141458219D01*
X164266945Y-141498605D01*
X164293076Y-141563404D01*
X164280024Y-141632044D01*
X164231936Y-141682732D01*
X164169667Y-141699500D01*
X142368469Y-141699500D01*
X142301430Y-141679815D01*
X142255675Y-141627011D01*
X142245731Y-141557853D01*
X142274756Y-141494297D01*
X142328206Y-141458219D01*
X142381786Y-141439824D01*
X142442946Y-141418828D01*
X142661645Y-141300474D01*
X142857880Y-141147738D01*
X143026300Y-140964785D01*
X143162309Y-140756607D01*
X143262199Y-140528881D01*
X143323244Y-140287821D01*
X143343779Y-140040000D01*
X143323244Y-139792179D01*
X143262199Y-139551119D01*
X143162309Y-139323393D01*
X143026302Y-139115217D01*
X143005996Y-139093159D01*
X142857880Y-138932262D01*
X142811391Y-138896078D01*
X142754390Y-138851712D01*
X142713577Y-138795002D01*
X142706791Y-138746176D01*
X142708191Y-138723608D01*
X141967544Y-137982962D01*
X142031129Y-137965925D01*
X142145143Y-137900099D01*
X142238235Y-137807007D01*
X142304061Y-137692993D01*
X142321098Y-137629409D01*
X143061571Y-138369882D01*
X143161869Y-138216364D01*
X143261723Y-137988717D01*
X143322748Y-137747738D01*
X143322750Y-137747729D01*
X143343277Y-137500005D01*
X143343277Y-137499994D01*
X143322750Y-137252270D01*
X143322748Y-137252261D01*
X143261723Y-137011282D01*
X143161868Y-136783632D01*
X143061571Y-136630116D01*
X142321098Y-137370590D01*
X142304061Y-137307007D01*
X142238235Y-137192993D01*
X142145143Y-137099901D01*
X142031129Y-137034075D01*
X141967545Y-137017037D01*
X142708191Y-136276389D01*
X142705789Y-136237683D01*
X142705789Y-136222317D01*
X142708191Y-136183608D01*
X141967544Y-135442962D01*
X142031129Y-135425925D01*
X142145143Y-135360099D01*
X142238235Y-135267007D01*
X142304061Y-135152993D01*
X142321098Y-135089409D01*
X143061571Y-135829882D01*
X143161869Y-135676364D01*
X143261723Y-135448717D01*
X143322748Y-135207738D01*
X143322750Y-135207729D01*
X143343277Y-134960005D01*
X143343277Y-134959994D01*
X143322750Y-134712270D01*
X143322748Y-134712261D01*
X143261723Y-134471282D01*
X143161868Y-134243632D01*
X143061571Y-134090116D01*
X142321098Y-134830590D01*
X142304061Y-134767007D01*
X142238235Y-134652993D01*
X142145143Y-134559901D01*
X142031129Y-134494075D01*
X141967545Y-134477037D01*
X142708191Y-133736389D01*
X142706790Y-133713825D01*
X142722282Y-133645694D01*
X142754385Y-133608290D01*
X142857880Y-133527738D01*
X143026300Y-133344785D01*
X143162309Y-133136607D01*
X143262199Y-132908881D01*
X143323244Y-132667821D01*
X143343779Y-132420000D01*
X143323244Y-132172179D01*
X143262199Y-131931119D01*
X143162309Y-131703393D01*
X143026302Y-131495217D01*
X143004693Y-131471744D01*
X142857880Y-131312262D01*
X142775127Y-131247852D01*
X142734315Y-131191143D01*
X142730640Y-131121370D01*
X142765272Y-131060687D01*
X142775121Y-131052151D01*
X142857880Y-130987738D01*
X143026300Y-130804785D01*
X143162309Y-130596607D01*
X143262199Y-130368881D01*
X143323244Y-130127821D01*
X143343779Y-129880000D01*
X143323244Y-129632179D01*
X143262199Y-129391119D01*
X143162309Y-129163393D01*
X143026302Y-128955217D01*
X143004693Y-128931744D01*
X142857880Y-128772262D01*
X142775127Y-128707852D01*
X142734315Y-128651143D01*
X142730640Y-128581370D01*
X142765272Y-128520687D01*
X142775121Y-128512151D01*
X142857880Y-128447738D01*
X143026300Y-128264785D01*
X143162309Y-128056607D01*
X143262199Y-127828881D01*
X143323244Y-127587821D01*
X143343779Y-127340000D01*
X143323244Y-127092179D01*
X143262199Y-126851119D01*
X143162309Y-126623393D01*
X143026302Y-126415217D01*
X143004693Y-126391744D01*
X142857880Y-126232262D01*
X142775127Y-126167852D01*
X142734315Y-126111143D01*
X142730640Y-126041370D01*
X142765272Y-125980687D01*
X142775121Y-125972151D01*
X142857880Y-125907738D01*
X143026300Y-125724785D01*
X143162309Y-125516607D01*
X143262199Y-125288881D01*
X143323244Y-125047821D01*
X143343779Y-124800000D01*
X143323244Y-124552179D01*
X143262199Y-124311119D01*
X143162309Y-124083393D01*
X143026302Y-123875217D01*
X143004693Y-123851744D01*
X142857880Y-123692262D01*
X142775127Y-123627852D01*
X142734315Y-123571143D01*
X142730640Y-123501370D01*
X142765272Y-123440687D01*
X142775121Y-123432151D01*
X142857880Y-123367738D01*
X143026300Y-123184785D01*
X143162309Y-122976607D01*
X143262199Y-122748881D01*
X143323244Y-122507821D01*
X143343779Y-122260000D01*
X143323244Y-122012179D01*
X143262199Y-121771119D01*
X143162309Y-121543393D01*
X143026302Y-121335217D01*
X143004693Y-121311744D01*
X142857880Y-121152262D01*
X142775127Y-121087852D01*
X142734315Y-121031143D01*
X142730640Y-120961370D01*
X142765272Y-120900687D01*
X142775121Y-120892151D01*
X142857880Y-120827738D01*
X143026300Y-120644785D01*
X143162309Y-120436607D01*
X143262199Y-120208881D01*
X143323244Y-119967821D01*
X143343779Y-119720000D01*
X143323244Y-119472179D01*
X143262199Y-119231119D01*
X143162309Y-119003393D01*
X143026302Y-118795217D01*
X143004693Y-118771744D01*
X142857880Y-118612262D01*
X142775127Y-118547852D01*
X142734315Y-118491143D01*
X142730640Y-118421370D01*
X142765272Y-118360687D01*
X142775121Y-118352151D01*
X142857880Y-118287738D01*
X143026300Y-118104785D01*
X143162309Y-117896607D01*
X143262199Y-117668881D01*
X143323244Y-117427821D01*
X143343779Y-117180000D01*
X143323244Y-116932179D01*
X143262199Y-116691119D01*
X143162309Y-116463393D01*
X143026302Y-116255217D01*
X143005996Y-116233159D01*
X142857880Y-116072262D01*
X142775129Y-116007854D01*
X142754390Y-115991712D01*
X142713577Y-115935002D01*
X142706791Y-115886176D01*
X142708191Y-115863608D01*
X141967544Y-115122962D01*
X142031129Y-115105925D01*
X142145143Y-115040099D01*
X142238235Y-114947007D01*
X142304061Y-114832993D01*
X142321098Y-114769409D01*
X143061571Y-115509882D01*
X143161869Y-115356364D01*
X143261723Y-115128717D01*
X143322748Y-114887738D01*
X143322750Y-114887729D01*
X143343277Y-114640005D01*
X143343277Y-114639994D01*
X143322750Y-114392270D01*
X143322748Y-114392261D01*
X143261723Y-114151282D01*
X143161868Y-113923632D01*
X143061571Y-113770116D01*
X142321098Y-114510590D01*
X142304061Y-114447007D01*
X142238235Y-114332993D01*
X142145143Y-114239901D01*
X142031129Y-114174075D01*
X141967545Y-114157037D01*
X142708191Y-113416389D01*
X142705789Y-113377683D01*
X142705789Y-113362317D01*
X142708191Y-113323608D01*
X141967544Y-112582962D01*
X142031129Y-112565925D01*
X142145143Y-112500099D01*
X142238235Y-112407007D01*
X142304061Y-112292993D01*
X142321098Y-112229409D01*
X143061571Y-112969882D01*
X143161869Y-112816364D01*
X143261723Y-112588717D01*
X143322748Y-112347738D01*
X143322750Y-112347729D01*
X143343277Y-112100005D01*
X143343277Y-112099994D01*
X143322750Y-111852270D01*
X143322748Y-111852261D01*
X143261723Y-111611282D01*
X143161868Y-111383632D01*
X143061571Y-111230116D01*
X142321098Y-111970590D01*
X142304061Y-111907007D01*
X142238235Y-111792993D01*
X142145143Y-111699901D01*
X142031129Y-111634075D01*
X141967545Y-111617037D01*
X142708191Y-110876389D01*
X142708191Y-110876388D01*
X142661372Y-110839947D01*
X142661367Y-110839944D01*
X142442750Y-110721635D01*
X142442739Y-110721630D01*
X142207629Y-110640916D01*
X141962429Y-110600000D01*
X141713843Y-110600000D01*
X141468642Y-110640916D01*
X141233532Y-110721630D01*
X141233521Y-110721635D01*
X141014906Y-110839943D01*
X140968079Y-110876389D01*
X141708727Y-111617037D01*
X141645143Y-111634075D01*
X141531129Y-111699901D01*
X141438037Y-111792993D01*
X141372211Y-111907007D01*
X141355173Y-111970590D01*
X140614699Y-111230117D01*
X140514403Y-111383633D01*
X140514401Y-111383637D01*
X140414548Y-111611282D01*
X140353523Y-111852261D01*
X140353521Y-111852270D01*
X140332995Y-112099994D01*
X140332995Y-112100005D01*
X140353521Y-112347729D01*
X140353523Y-112347738D01*
X140414548Y-112588717D01*
X140514403Y-112816367D01*
X140614698Y-112969881D01*
X141355173Y-112229408D01*
X141372211Y-112292993D01*
X141438037Y-112407007D01*
X141531129Y-112500099D01*
X141645143Y-112565925D01*
X141708727Y-112582962D01*
X140968079Y-113323609D01*
X140970482Y-113362315D01*
X140970482Y-113377681D01*
X140968079Y-113416389D01*
X141708727Y-114157037D01*
X141645143Y-114174075D01*
X141531129Y-114239901D01*
X141438037Y-114332993D01*
X141372211Y-114447007D01*
X141355173Y-114510590D01*
X140614699Y-113770117D01*
X140514403Y-113923633D01*
X140514401Y-113923637D01*
X140414548Y-114151282D01*
X140353523Y-114392261D01*
X140353521Y-114392270D01*
X140332995Y-114639994D01*
X140332995Y-114640005D01*
X140353521Y-114887729D01*
X140353523Y-114887738D01*
X140414548Y-115128717D01*
X140514403Y-115356367D01*
X140614698Y-115509881D01*
X141355173Y-114769408D01*
X141372211Y-114832993D01*
X141438037Y-114947007D01*
X141531129Y-115040099D01*
X141645143Y-115105925D01*
X141708727Y-115122962D01*
X140968079Y-115863609D01*
X140969480Y-115886176D01*
X140953987Y-115954306D01*
X140921881Y-115991712D01*
X140818394Y-116072260D01*
X140649969Y-116255217D01*
X140513962Y-116463393D01*
X140414072Y-116691118D01*
X140353028Y-116932175D01*
X140353026Y-116932187D01*
X140332493Y-117179994D01*
X140332493Y-117180005D01*
X140353026Y-117427812D01*
X140353028Y-117427824D01*
X140414072Y-117668881D01*
X140513962Y-117896606D01*
X140649969Y-118104782D01*
X140649972Y-118104785D01*
X140818392Y-118287738D01*
X140901144Y-118352147D01*
X140941957Y-118408857D01*
X140945632Y-118478630D01*
X140911000Y-118539313D01*
X140901150Y-118547848D01*
X140842536Y-118593469D01*
X140818393Y-118612261D01*
X140649969Y-118795217D01*
X140513962Y-119003393D01*
X140414072Y-119231118D01*
X140353028Y-119472175D01*
X140353026Y-119472187D01*
X140332493Y-119719994D01*
X140332493Y-119720005D01*
X140353026Y-119967812D01*
X140353028Y-119967824D01*
X140414072Y-120208881D01*
X140513962Y-120436606D01*
X140649969Y-120644782D01*
X140649972Y-120644785D01*
X140818392Y-120827738D01*
X140901144Y-120892147D01*
X140941957Y-120948857D01*
X140945632Y-121018630D01*
X140911000Y-121079313D01*
X140901150Y-121087848D01*
X140842536Y-121133469D01*
X140818393Y-121152261D01*
X140649969Y-121335217D01*
X140513962Y-121543393D01*
X140414072Y-121771118D01*
X140353028Y-122012175D01*
X140353026Y-122012187D01*
X140332493Y-122259994D01*
X140332493Y-122260005D01*
X140353026Y-122507812D01*
X140353028Y-122507824D01*
X140414072Y-122748881D01*
X140513962Y-122976606D01*
X140649969Y-123184782D01*
X140649972Y-123184785D01*
X140818392Y-123367738D01*
X140901144Y-123432147D01*
X140941957Y-123488857D01*
X140945632Y-123558630D01*
X140911000Y-123619313D01*
X140901150Y-123627848D01*
X140842536Y-123673469D01*
X140818393Y-123692261D01*
X140649969Y-123875217D01*
X140513962Y-124083393D01*
X140414072Y-124311118D01*
X140353028Y-124552175D01*
X140353026Y-124552187D01*
X140332493Y-124799994D01*
X140332493Y-124800005D01*
X140353026Y-125047812D01*
X140353028Y-125047824D01*
X140414072Y-125288881D01*
X140513962Y-125516606D01*
X140649969Y-125724782D01*
X140649972Y-125724785D01*
X140818392Y-125907738D01*
X140901144Y-125972147D01*
X140941957Y-126028857D01*
X140945632Y-126098630D01*
X140911000Y-126159313D01*
X140901150Y-126167848D01*
X140842536Y-126213469D01*
X140818393Y-126232261D01*
X140649969Y-126415217D01*
X140513962Y-126623393D01*
X140414072Y-126851118D01*
X140353028Y-127092175D01*
X140353026Y-127092187D01*
X140332493Y-127339994D01*
X140332493Y-127340005D01*
X140353026Y-127587812D01*
X140353028Y-127587824D01*
X140414072Y-127828881D01*
X140513962Y-128056606D01*
X140649969Y-128264782D01*
X140649972Y-128264785D01*
X140818392Y-128447738D01*
X140901144Y-128512147D01*
X140941957Y-128568857D01*
X140945632Y-128638630D01*
X140911000Y-128699313D01*
X140901150Y-128707848D01*
X140842536Y-128753469D01*
X140818393Y-128772261D01*
X140649969Y-128955217D01*
X140513962Y-129163393D01*
X140414072Y-129391118D01*
X140353028Y-129632175D01*
X140353026Y-129632187D01*
X140332493Y-129879994D01*
X140332493Y-129880005D01*
X140353026Y-130127812D01*
X140353028Y-130127824D01*
X140414072Y-130368881D01*
X140513962Y-130596606D01*
X140649969Y-130804782D01*
X140649972Y-130804785D01*
X140818392Y-130987738D01*
X140901144Y-131052147D01*
X140941957Y-131108857D01*
X140945632Y-131178630D01*
X140911000Y-131239313D01*
X140901150Y-131247848D01*
X140842536Y-131293469D01*
X140818393Y-131312261D01*
X140649969Y-131495217D01*
X140513962Y-131703393D01*
X140414072Y-131931118D01*
X140353028Y-132172175D01*
X140353026Y-132172187D01*
X140332493Y-132419994D01*
X140332493Y-132420005D01*
X140353026Y-132667812D01*
X140353028Y-132667824D01*
X140414072Y-132908881D01*
X140513962Y-133136606D01*
X140649969Y-133344782D01*
X140649972Y-133344785D01*
X140818392Y-133527738D01*
X140895638Y-133587861D01*
X140921881Y-133608287D01*
X140962694Y-133664997D01*
X140969480Y-133713823D01*
X140968079Y-133736389D01*
X141708727Y-134477037D01*
X141645143Y-134494075D01*
X141531129Y-134559901D01*
X141438037Y-134652993D01*
X141372211Y-134767007D01*
X141355173Y-134830590D01*
X140614699Y-134090117D01*
X140514403Y-134243633D01*
X140514401Y-134243637D01*
X140414548Y-134471282D01*
X140353523Y-134712261D01*
X140353521Y-134712270D01*
X140332995Y-134959994D01*
X140332995Y-134960005D01*
X140353521Y-135207729D01*
X140353523Y-135207738D01*
X140414548Y-135448717D01*
X140514403Y-135676367D01*
X140614698Y-135829881D01*
X141355173Y-135089408D01*
X141372211Y-135152993D01*
X141438037Y-135267007D01*
X141531129Y-135360099D01*
X141645143Y-135425925D01*
X141708727Y-135442962D01*
X140968079Y-136183609D01*
X140970482Y-136222315D01*
X140970482Y-136237681D01*
X140968079Y-136276389D01*
X141708727Y-137017037D01*
X141645143Y-137034075D01*
X141531129Y-137099901D01*
X141438037Y-137192993D01*
X141372211Y-137307007D01*
X141355173Y-137370590D01*
X140614699Y-136630117D01*
X140514403Y-136783633D01*
X140514401Y-136783637D01*
X140414548Y-137011282D01*
X140353523Y-137252261D01*
X140353521Y-137252270D01*
X140332995Y-137499994D01*
X140332995Y-137500005D01*
X140353521Y-137747729D01*
X140353523Y-137747738D01*
X140414548Y-137988717D01*
X140514403Y-138216367D01*
X140614698Y-138369881D01*
X141355173Y-137629408D01*
X141372211Y-137692993D01*
X141438037Y-137807007D01*
X141531129Y-137900099D01*
X141645143Y-137965925D01*
X141708727Y-137982962D01*
X140968079Y-138723609D01*
X140969480Y-138746176D01*
X140953987Y-138814306D01*
X140921881Y-138851712D01*
X140818394Y-138932260D01*
X140649969Y-139115217D01*
X140513962Y-139323393D01*
X140414072Y-139551118D01*
X140353028Y-139792175D01*
X140353026Y-139792187D01*
X140332493Y-140039994D01*
X140332493Y-140040005D01*
X140353026Y-140287812D01*
X140353028Y-140287824D01*
X140414072Y-140528881D01*
X140513962Y-140756606D01*
X140649969Y-140964782D01*
X140649972Y-140964785D01*
X140818392Y-141147738D01*
X141014627Y-141300474D01*
X141233326Y-141418828D01*
X141277084Y-141433850D01*
X141348066Y-141458219D01*
X141405081Y-141498605D01*
X141431212Y-141563404D01*
X141418160Y-141632044D01*
X141370072Y-141682732D01*
X141307803Y-141699500D01*
X136287000Y-141699500D01*
X136219961Y-141679815D01*
X136174206Y-141627011D01*
X136163000Y-141575500D01*
X136163000Y-110299996D01*
X166294435Y-110299996D01*
X166294435Y-110300003D01*
X166314630Y-110479249D01*
X166314631Y-110479254D01*
X166374211Y-110649523D01*
X166470184Y-110802262D01*
X166597738Y-110929816D01*
X166688080Y-110986582D01*
X166697118Y-110992261D01*
X166750478Y-111025789D01*
X166920745Y-111085368D01*
X166920750Y-111085369D01*
X167099996Y-111105565D01*
X167100000Y-111105565D01*
X167100004Y-111105565D01*
X167279249Y-111085369D01*
X167279252Y-111085368D01*
X167279255Y-111085368D01*
X167449522Y-111025789D01*
X167602262Y-110929816D01*
X167729816Y-110802262D01*
X167825789Y-110649522D01*
X167885368Y-110479255D01*
X167905565Y-110300000D01*
X167885368Y-110120745D01*
X167836115Y-109979988D01*
X167832554Y-109910209D01*
X167848162Y-109873064D01*
X167925789Y-109749522D01*
X167985368Y-109579255D01*
X168005565Y-109400000D01*
X167985368Y-109220745D01*
X167925789Y-109050478D01*
X167829816Y-108897738D01*
X167702262Y-108770184D01*
X167549523Y-108674211D01*
X167379254Y-108614631D01*
X167379249Y-108614630D01*
X167200004Y-108594435D01*
X167199996Y-108594435D01*
X167020750Y-108614630D01*
X167020745Y-108614631D01*
X166850476Y-108674211D01*
X166697737Y-108770184D01*
X166570184Y-108897737D01*
X166474211Y-109050476D01*
X166414631Y-109220745D01*
X166414630Y-109220750D01*
X166394435Y-109399996D01*
X166394435Y-109400003D01*
X166414630Y-109579249D01*
X166414632Y-109579257D01*
X166463884Y-109720011D01*
X166467445Y-109789789D01*
X166451836Y-109826937D01*
X166374211Y-109950476D01*
X166314631Y-110120745D01*
X166314630Y-110120750D01*
X166294435Y-110299996D01*
X136163000Y-110299996D01*
X136163000Y-106094440D01*
X136182685Y-106027401D01*
X136235489Y-105981646D01*
X136304647Y-105971702D01*
X136368203Y-106000727D01*
X136374681Y-106006759D01*
X136497738Y-106129816D01*
X136650478Y-106225789D01*
X136820745Y-106285368D01*
X136820750Y-106285369D01*
X136999996Y-106305565D01*
X137000000Y-106305565D01*
X137000004Y-106305565D01*
X137179249Y-106285369D01*
X137179252Y-106285368D01*
X137179255Y-106285368D01*
X137349522Y-106225789D01*
X137502262Y-106129816D01*
X137629816Y-106002262D01*
X137725789Y-105849522D01*
X137785368Y-105679255D01*
X137805565Y-105500000D01*
X137805565Y-105499996D01*
X138094435Y-105499996D01*
X138094435Y-105500003D01*
X138114630Y-105679249D01*
X138114631Y-105679254D01*
X138174211Y-105849523D01*
X138250982Y-105971702D01*
X138270184Y-106002262D01*
X138397738Y-106129816D01*
X138550478Y-106225789D01*
X138720745Y-106285368D01*
X138720750Y-106285369D01*
X138899996Y-106305565D01*
X138900000Y-106305565D01*
X138900004Y-106305565D01*
X139079249Y-106285369D01*
X139079252Y-106285368D01*
X139079255Y-106285368D01*
X139249522Y-106225789D01*
X139402262Y-106129816D01*
X139529816Y-106002262D01*
X139625789Y-105849522D01*
X139685368Y-105679255D01*
X139705565Y-105500000D01*
X139685368Y-105320745D01*
X139625789Y-105150478D01*
X139529816Y-104997738D01*
X139402262Y-104870184D01*
X139249523Y-104774211D01*
X139079254Y-104714631D01*
X139079249Y-104714630D01*
X138900004Y-104694435D01*
X138899996Y-104694435D01*
X138720750Y-104714630D01*
X138720745Y-104714631D01*
X138550476Y-104774211D01*
X138397737Y-104870184D01*
X138270184Y-104997737D01*
X138174211Y-105150476D01*
X138114631Y-105320745D01*
X138114630Y-105320750D01*
X138094435Y-105499996D01*
X137805565Y-105499996D01*
X137785368Y-105320745D01*
X137725789Y-105150478D01*
X137629816Y-104997738D01*
X137502262Y-104870184D01*
X137349523Y-104774211D01*
X137179254Y-104714631D01*
X137179249Y-104714630D01*
X137000004Y-104694435D01*
X136999996Y-104694435D01*
X136820750Y-104714630D01*
X136820745Y-104714631D01*
X136650476Y-104774211D01*
X136497737Y-104870184D01*
X136374681Y-104993241D01*
X136313358Y-105026726D01*
X136243666Y-105021742D01*
X136187733Y-104979870D01*
X136163316Y-104914406D01*
X136163000Y-104905560D01*
X136163000Y-99699996D01*
X140694435Y-99699996D01*
X140694435Y-99700003D01*
X140714630Y-99879249D01*
X140714631Y-99879254D01*
X140774211Y-100049523D01*
X140868760Y-100199996D01*
X140870184Y-100202262D01*
X140997738Y-100329816D01*
X141150478Y-100425789D01*
X141320745Y-100485368D01*
X141320750Y-100485369D01*
X141499996Y-100505565D01*
X141500000Y-100505565D01*
X141500004Y-100505565D01*
X141679249Y-100485369D01*
X141679252Y-100485368D01*
X141679255Y-100485368D01*
X141849522Y-100425789D01*
X142002262Y-100329816D01*
X142129816Y-100202262D01*
X142131240Y-100199996D01*
X146391935Y-100199996D01*
X146391935Y-100200003D01*
X146412130Y-100379249D01*
X146412131Y-100379254D01*
X146471711Y-100549523D01*
X146567684Y-100702262D01*
X146695238Y-100829816D01*
X146847978Y-100925789D01*
X147018245Y-100985368D01*
X147018250Y-100985369D01*
X147197496Y-101005565D01*
X147197500Y-101005565D01*
X147197504Y-101005565D01*
X147376749Y-100985369D01*
X147376752Y-100985368D01*
X147376755Y-100985368D01*
X147547022Y-100925789D01*
X147699762Y-100829816D01*
X147827316Y-100702262D01*
X147923289Y-100549522D01*
X147982868Y-100379255D01*
X147982869Y-100379249D01*
X148003065Y-100200003D01*
X148003065Y-100199996D01*
X147982869Y-100020750D01*
X147982868Y-100020745D01*
X147923289Y-99850478D01*
X147827316Y-99697738D01*
X147699762Y-99570184D01*
X147547023Y-99474211D01*
X147376754Y-99414631D01*
X147376749Y-99414630D01*
X147197504Y-99394435D01*
X147197496Y-99394435D01*
X147018250Y-99414630D01*
X147018245Y-99414631D01*
X146847976Y-99474211D01*
X146695237Y-99570184D01*
X146567684Y-99697737D01*
X146471711Y-99850476D01*
X146412131Y-100020745D01*
X146412130Y-100020750D01*
X146391935Y-100199996D01*
X142131240Y-100199996D01*
X142225789Y-100049522D01*
X142285368Y-99879255D01*
X142285369Y-99879249D01*
X142305565Y-99700003D01*
X142305565Y-99699996D01*
X142285369Y-99520750D01*
X142285368Y-99520745D01*
X142225788Y-99350476D01*
X142129815Y-99197737D01*
X142002262Y-99070184D01*
X141849523Y-98974211D01*
X141679254Y-98914631D01*
X141679249Y-98914630D01*
X141500004Y-98894435D01*
X141499996Y-98894435D01*
X141320750Y-98914630D01*
X141320745Y-98914631D01*
X141150476Y-98974211D01*
X140997737Y-99070184D01*
X140870184Y-99197737D01*
X140774211Y-99350476D01*
X140714631Y-99520745D01*
X140714630Y-99520750D01*
X140694435Y-99699996D01*
X136163000Y-99699996D01*
X136163000Y-95899996D01*
X143994435Y-95899996D01*
X143994435Y-95900003D01*
X144014630Y-96079249D01*
X144014631Y-96079254D01*
X144074211Y-96249523D01*
X144170184Y-96402262D01*
X144297738Y-96529816D01*
X144450478Y-96625789D01*
X144620745Y-96685368D01*
X144620750Y-96685369D01*
X144799996Y-96705565D01*
X144800000Y-96705565D01*
X144800004Y-96705565D01*
X144979249Y-96685369D01*
X144979252Y-96685368D01*
X144979255Y-96685368D01*
X145149522Y-96625789D01*
X145302262Y-96529816D01*
X145429816Y-96402262D01*
X145525789Y-96249522D01*
X145585368Y-96079255D01*
X145605565Y-95900000D01*
X145585368Y-95720745D01*
X145525789Y-95550478D01*
X145429816Y-95397738D01*
X145302262Y-95270184D01*
X145269379Y-95249522D01*
X145149523Y-95174211D01*
X144979254Y-95114631D01*
X144979249Y-95114630D01*
X144800004Y-95094435D01*
X144799996Y-95094435D01*
X144620750Y-95114630D01*
X144620745Y-95114631D01*
X144450476Y-95174211D01*
X144297737Y-95270184D01*
X144170184Y-95397737D01*
X144074211Y-95550476D01*
X144014631Y-95720745D01*
X144014630Y-95720750D01*
X143994435Y-95899996D01*
X136163000Y-95899996D01*
X136163000Y-94899996D01*
X159691935Y-94899996D01*
X159691935Y-94900003D01*
X159712130Y-95079249D01*
X159712131Y-95079254D01*
X159771711Y-95249523D01*
X159864841Y-95397737D01*
X159867684Y-95402262D01*
X159995238Y-95529816D01*
X160147978Y-95625789D01*
X160318245Y-95685368D01*
X160318250Y-95685369D01*
X160497496Y-95705565D01*
X160497500Y-95705565D01*
X160497504Y-95705565D01*
X160676749Y-95685369D01*
X160676752Y-95685368D01*
X160676755Y-95685368D01*
X160847022Y-95625789D01*
X160999762Y-95529816D01*
X161127316Y-95402262D01*
X161223289Y-95249522D01*
X161282868Y-95079255D01*
X161303065Y-94900000D01*
X161282868Y-94720745D01*
X161223289Y-94550478D01*
X161127316Y-94397738D01*
X160999762Y-94270184D01*
X160847023Y-94174211D01*
X160676754Y-94114631D01*
X160676749Y-94114630D01*
X160497504Y-94094435D01*
X160497496Y-94094435D01*
X160318250Y-94114630D01*
X160318245Y-94114631D01*
X160147976Y-94174211D01*
X159995237Y-94270184D01*
X159867684Y-94397737D01*
X159771711Y-94550476D01*
X159712131Y-94720745D01*
X159712130Y-94720750D01*
X159691935Y-94899996D01*
X136163000Y-94899996D01*
X136163000Y-93299996D01*
X155294435Y-93299996D01*
X155294435Y-93300003D01*
X155314630Y-93479249D01*
X155314631Y-93479254D01*
X155374211Y-93649523D01*
X155470184Y-93802262D01*
X155597738Y-93929816D01*
X155750478Y-94025789D01*
X155920745Y-94085368D01*
X155920750Y-94085369D01*
X156099996Y-94105565D01*
X156100000Y-94105565D01*
X156100004Y-94105565D01*
X156279249Y-94085369D01*
X156279252Y-94085368D01*
X156279255Y-94085368D01*
X156449522Y-94025789D01*
X156602262Y-93929816D01*
X156729816Y-93802262D01*
X156825789Y-93649522D01*
X156885368Y-93479255D01*
X156905565Y-93300000D01*
X156885368Y-93120745D01*
X156825789Y-92950478D01*
X156729816Y-92797738D01*
X156602262Y-92670184D01*
X156449523Y-92574211D01*
X156279254Y-92514631D01*
X156279249Y-92514630D01*
X156100004Y-92494435D01*
X156099996Y-92494435D01*
X155920750Y-92514630D01*
X155920745Y-92514631D01*
X155750476Y-92574211D01*
X155597737Y-92670184D01*
X155470184Y-92797737D01*
X155374211Y-92950476D01*
X155314631Y-93120745D01*
X155314630Y-93120750D01*
X155294435Y-93299996D01*
X136163000Y-93299996D01*
X136163000Y-89999996D01*
X143794435Y-89999996D01*
X143794435Y-90000003D01*
X143814630Y-90179249D01*
X143814631Y-90179254D01*
X143874211Y-90349523D01*
X143921487Y-90424762D01*
X143970184Y-90502262D01*
X144097738Y-90629816D01*
X144127136Y-90648288D01*
X144221958Y-90707869D01*
X144250478Y-90725789D01*
X144420745Y-90785368D01*
X144420750Y-90785369D01*
X144599996Y-90805565D01*
X144600000Y-90805565D01*
X144600004Y-90805565D01*
X144779249Y-90785369D01*
X144779252Y-90785368D01*
X144779255Y-90785368D01*
X144949522Y-90725789D01*
X145102262Y-90629816D01*
X145229816Y-90502262D01*
X145325789Y-90349522D01*
X145385368Y-90179255D01*
X145394100Y-90101755D01*
X145405565Y-90000003D01*
X145405565Y-89999996D01*
X145396833Y-89922496D01*
X155269435Y-89922496D01*
X155269435Y-89922503D01*
X155289630Y-90101749D01*
X155289631Y-90101754D01*
X155349211Y-90272023D01*
X155397908Y-90349523D01*
X155445184Y-90424762D01*
X155572738Y-90552316D01*
X155725478Y-90648289D01*
X155879724Y-90702262D01*
X155895745Y-90707868D01*
X155895750Y-90707869D01*
X156074996Y-90728065D01*
X156075000Y-90728065D01*
X156075004Y-90728065D01*
X156254249Y-90707869D01*
X156254252Y-90707868D01*
X156254255Y-90707868D01*
X156424522Y-90648289D01*
X156577262Y-90552316D01*
X156704816Y-90424762D01*
X156800789Y-90272022D01*
X156825992Y-90199996D01*
X160591935Y-90199996D01*
X160591935Y-90200003D01*
X160612130Y-90379249D01*
X160612131Y-90379254D01*
X160671711Y-90549523D01*
X160722162Y-90629815D01*
X160767684Y-90702262D01*
X160895238Y-90829816D01*
X161047978Y-90925789D01*
X161218245Y-90985368D01*
X161218250Y-90985369D01*
X161397496Y-91005565D01*
X161397500Y-91005565D01*
X161397504Y-91005565D01*
X161576749Y-90985369D01*
X161576752Y-90985368D01*
X161576755Y-90985368D01*
X161747022Y-90925789D01*
X161899762Y-90829816D01*
X162027316Y-90702262D01*
X162123289Y-90549522D01*
X162182868Y-90379255D01*
X162203065Y-90200000D01*
X162191995Y-90101754D01*
X162182869Y-90020750D01*
X162182868Y-90020745D01*
X162175608Y-89999996D01*
X162123289Y-89850478D01*
X162104606Y-89820745D01*
X162027315Y-89697737D01*
X161899762Y-89570184D01*
X161747023Y-89474211D01*
X161576754Y-89414631D01*
X161576749Y-89414630D01*
X161397504Y-89394435D01*
X161397496Y-89394435D01*
X161218250Y-89414630D01*
X161218245Y-89414631D01*
X161047976Y-89474211D01*
X160895237Y-89570184D01*
X160767684Y-89697737D01*
X160671711Y-89850476D01*
X160612131Y-90020745D01*
X160612130Y-90020750D01*
X160591935Y-90199996D01*
X156825992Y-90199996D01*
X156860368Y-90101755D01*
X156871833Y-90000000D01*
X156880565Y-89922503D01*
X156880565Y-89922496D01*
X156860369Y-89743250D01*
X156860368Y-89743245D01*
X156800788Y-89572976D01*
X156761582Y-89510580D01*
X156704816Y-89420238D01*
X156577262Y-89292684D01*
X156424523Y-89196711D01*
X156254254Y-89137131D01*
X156254249Y-89137130D01*
X156075004Y-89116935D01*
X156074996Y-89116935D01*
X155895750Y-89137130D01*
X155895745Y-89137131D01*
X155725476Y-89196711D01*
X155572737Y-89292684D01*
X155445184Y-89420237D01*
X155349211Y-89572976D01*
X155289631Y-89743245D01*
X155289630Y-89743250D01*
X155269435Y-89922496D01*
X145396833Y-89922496D01*
X145385369Y-89820750D01*
X145385368Y-89820745D01*
X145358251Y-89743250D01*
X145325789Y-89650478D01*
X145229816Y-89497738D01*
X145102262Y-89370184D01*
X144978922Y-89292684D01*
X144949523Y-89274211D01*
X144779254Y-89214631D01*
X144779249Y-89214630D01*
X144600004Y-89194435D01*
X144599996Y-89194435D01*
X144420750Y-89214630D01*
X144420745Y-89214631D01*
X144250476Y-89274211D01*
X144097737Y-89370184D01*
X143970184Y-89497737D01*
X143874211Y-89650476D01*
X143814631Y-89820745D01*
X143814630Y-89820750D01*
X143794435Y-89999996D01*
X136163000Y-89999996D01*
X136163000Y-83599996D01*
X143994435Y-83599996D01*
X143994435Y-83600003D01*
X144014630Y-83779249D01*
X144014631Y-83779254D01*
X144074211Y-83949523D01*
X144170184Y-84102262D01*
X144297738Y-84229816D01*
X144450478Y-84325789D01*
X144620745Y-84385368D01*
X144620750Y-84385369D01*
X144799996Y-84405565D01*
X144800000Y-84405565D01*
X144800004Y-84405565D01*
X144979249Y-84385369D01*
X144979252Y-84385368D01*
X144979255Y-84385368D01*
X145149522Y-84325789D01*
X145302262Y-84229816D01*
X145429816Y-84102262D01*
X145525789Y-83949522D01*
X145585368Y-83779255D01*
X145605565Y-83600000D01*
X145585368Y-83420745D01*
X145525789Y-83250478D01*
X145429816Y-83097738D01*
X145302262Y-82970184D01*
X145149523Y-82874211D01*
X144979254Y-82814631D01*
X144979249Y-82814630D01*
X144800004Y-82794435D01*
X144799996Y-82794435D01*
X144620750Y-82814630D01*
X144620745Y-82814631D01*
X144450476Y-82874211D01*
X144297737Y-82970184D01*
X144170184Y-83097737D01*
X144074211Y-83250476D01*
X144014631Y-83420745D01*
X144014630Y-83420750D01*
X143994435Y-83599996D01*
X136163000Y-83599996D01*
X136163000Y-80887500D01*
X160892051Y-80887500D01*
X160911817Y-81138651D01*
X160970626Y-81383610D01*
X161067033Y-81616359D01*
X161198660Y-81831153D01*
X161198661Y-81831156D01*
X161198664Y-81831159D01*
X161362276Y-82022724D01*
X161510566Y-82149375D01*
X161553843Y-82186338D01*
X161553846Y-82186339D01*
X161768640Y-82317966D01*
X162000237Y-82413896D01*
X162001389Y-82414373D01*
X162246352Y-82473183D01*
X162497500Y-82492949D01*
X162748648Y-82473183D01*
X162993611Y-82414373D01*
X163226359Y-82317966D01*
X163441159Y-82186336D01*
X163632724Y-82022724D01*
X163796336Y-81831159D01*
X163927966Y-81616359D01*
X164024373Y-81383611D01*
X164083183Y-81138648D01*
X164102949Y-80887500D01*
X165892552Y-80887500D01*
X165912312Y-81138572D01*
X165971103Y-81383456D01*
X166067480Y-81616131D01*
X166199068Y-81830862D01*
X166199766Y-81831679D01*
X166932887Y-81098558D01*
X166938389Y-81119091D01*
X167017381Y-81255908D01*
X167129092Y-81367619D01*
X167265909Y-81446611D01*
X167286440Y-81452112D01*
X166553319Y-82185232D01*
X166553319Y-82185233D01*
X166554134Y-82185929D01*
X166768868Y-82317519D01*
X167001543Y-82413896D01*
X167246427Y-82472687D01*
X167497500Y-82492447D01*
X167748572Y-82472687D01*
X167993456Y-82413896D01*
X168226131Y-82317519D01*
X168440861Y-82185932D01*
X168440863Y-82185930D01*
X168441680Y-82185232D01*
X167708559Y-81452112D01*
X167729091Y-81446611D01*
X167865908Y-81367619D01*
X167977619Y-81255908D01*
X168056611Y-81119091D01*
X168062112Y-81098559D01*
X168795232Y-81831680D01*
X168795930Y-81830863D01*
X168795932Y-81830861D01*
X168927519Y-81616131D01*
X169023896Y-81383456D01*
X169082687Y-81138572D01*
X169102447Y-80887500D01*
X169082687Y-80636427D01*
X169023896Y-80391543D01*
X168927519Y-80158868D01*
X168795929Y-79944134D01*
X168795233Y-79943319D01*
X168795232Y-79943319D01*
X168062112Y-80676439D01*
X168056611Y-80655909D01*
X167977619Y-80519092D01*
X167865908Y-80407381D01*
X167729091Y-80328389D01*
X167708557Y-80322887D01*
X168441679Y-79589766D01*
X168440862Y-79589068D01*
X168226131Y-79457480D01*
X167993456Y-79361103D01*
X167748572Y-79302312D01*
X167497500Y-79282552D01*
X167246427Y-79302312D01*
X167001543Y-79361103D01*
X166768868Y-79457480D01*
X166554137Y-79589067D01*
X166553318Y-79589766D01*
X167286440Y-80322887D01*
X167265909Y-80328389D01*
X167129092Y-80407381D01*
X167017381Y-80519092D01*
X166938389Y-80655909D01*
X166932887Y-80676440D01*
X166199766Y-79943318D01*
X166199067Y-79944137D01*
X166067480Y-80158868D01*
X165971103Y-80391543D01*
X165912312Y-80636427D01*
X165892552Y-80887500D01*
X164102949Y-80887500D01*
X164083183Y-80636352D01*
X164024373Y-80391389D01*
X163927966Y-80158641D01*
X163927966Y-80158640D01*
X163796517Y-79944137D01*
X163796338Y-79943845D01*
X163796338Y-79943843D01*
X163759375Y-79900566D01*
X163632724Y-79752276D01*
X163506071Y-79644104D01*
X163441156Y-79588661D01*
X163441153Y-79588660D01*
X163226359Y-79457033D01*
X162993610Y-79360626D01*
X162748651Y-79301817D01*
X162497500Y-79282051D01*
X162246348Y-79301817D01*
X162001389Y-79360626D01*
X161768640Y-79457033D01*
X161553846Y-79588660D01*
X161553843Y-79588661D01*
X161362276Y-79752276D01*
X161198661Y-79943843D01*
X161198660Y-79943846D01*
X161067033Y-80158640D01*
X160970626Y-80391389D01*
X160911817Y-80636348D01*
X160892051Y-80887500D01*
X136163000Y-80887500D01*
X136163000Y-77699996D01*
X143994435Y-77699996D01*
X143994435Y-77700003D01*
X144014630Y-77879249D01*
X144014631Y-77879254D01*
X144074211Y-78049523D01*
X144170184Y-78202262D01*
X144297738Y-78329816D01*
X144450478Y-78425789D01*
X144620745Y-78485368D01*
X144620750Y-78485369D01*
X144799996Y-78505565D01*
X144800000Y-78505565D01*
X144800004Y-78505565D01*
X144979249Y-78485369D01*
X144979252Y-78485368D01*
X144979255Y-78485368D01*
X145149522Y-78425789D01*
X145302262Y-78329816D01*
X145429816Y-78202262D01*
X145525789Y-78049522D01*
X145585368Y-77879255D01*
X145605565Y-77700000D01*
X145585368Y-77520745D01*
X145525789Y-77350478D01*
X145429816Y-77197738D01*
X145302262Y-77070184D01*
X145149523Y-76974211D01*
X144979254Y-76914631D01*
X144979249Y-76914630D01*
X144800004Y-76894435D01*
X144799996Y-76894435D01*
X144620750Y-76914630D01*
X144620745Y-76914631D01*
X144450476Y-76974211D01*
X144297737Y-77070184D01*
X144170184Y-77197737D01*
X144074211Y-77350476D01*
X144014631Y-77520745D01*
X144014630Y-77520750D01*
X143994435Y-77699996D01*
X136163000Y-77699996D01*
X136163000Y-74887500D01*
X146142051Y-74887500D01*
X146161817Y-75138651D01*
X146220626Y-75383610D01*
X146317033Y-75616359D01*
X146448660Y-75831153D01*
X146448661Y-75831156D01*
X146448664Y-75831159D01*
X146612276Y-76022724D01*
X146760566Y-76149375D01*
X146803843Y-76186338D01*
X146803846Y-76186339D01*
X147018640Y-76317966D01*
X147251389Y-76414373D01*
X147496352Y-76473183D01*
X147747500Y-76492949D01*
X147998648Y-76473183D01*
X148243611Y-76414373D01*
X148476359Y-76317966D01*
X148691159Y-76186336D01*
X148882724Y-76022724D01*
X149046336Y-75831159D01*
X149177966Y-75616359D01*
X149274373Y-75383611D01*
X149333183Y-75138648D01*
X149352949Y-74887500D01*
X149333183Y-74636352D01*
X149274373Y-74391389D01*
X149177966Y-74158641D01*
X149177966Y-74158640D01*
X149046339Y-73943846D01*
X149046338Y-73943843D01*
X149009375Y-73900566D01*
X148882724Y-73752276D01*
X148756071Y-73644104D01*
X148691156Y-73588661D01*
X148691153Y-73588660D01*
X148476359Y-73457033D01*
X148243610Y-73360626D01*
X147998651Y-73301817D01*
X147747500Y-73282051D01*
X147496348Y-73301817D01*
X147251389Y-73360626D01*
X147018640Y-73457033D01*
X146803846Y-73588660D01*
X146803843Y-73588661D01*
X146612276Y-73752276D01*
X146448661Y-73943843D01*
X146448660Y-73943846D01*
X146317033Y-74158640D01*
X146220626Y-74391389D01*
X146161817Y-74636348D01*
X146142051Y-74887500D01*
X136163000Y-74887500D01*
X136163000Y-71799996D01*
X143894435Y-71799996D01*
X143894435Y-71800003D01*
X143914630Y-71979249D01*
X143914631Y-71979254D01*
X143974211Y-72149523D01*
X144070184Y-72302262D01*
X144197738Y-72429816D01*
X144350478Y-72525789D01*
X144520745Y-72585368D01*
X144520750Y-72585369D01*
X144699996Y-72605565D01*
X144700000Y-72605565D01*
X144700004Y-72605565D01*
X144879249Y-72585369D01*
X144879252Y-72585368D01*
X144879255Y-72585368D01*
X145049522Y-72525789D01*
X145202262Y-72429816D01*
X145329816Y-72302262D01*
X145425789Y-72149522D01*
X145485368Y-71979255D01*
X145505565Y-71800000D01*
X145485368Y-71620745D01*
X145425789Y-71450478D01*
X145329816Y-71297738D01*
X145202262Y-71170184D01*
X145049523Y-71074211D01*
X144879254Y-71014631D01*
X144879249Y-71014630D01*
X144700004Y-70994435D01*
X144699996Y-70994435D01*
X144520750Y-71014630D01*
X144520745Y-71014631D01*
X144350476Y-71074211D01*
X144197737Y-71170184D01*
X144070184Y-71297737D01*
X143974211Y-71450476D01*
X143914631Y-71620745D01*
X143914630Y-71620750D01*
X143894435Y-71799996D01*
X136163000Y-71799996D01*
X136163000Y-68887500D01*
X146142051Y-68887500D01*
X146161817Y-69138651D01*
X146220626Y-69383610D01*
X146317033Y-69616359D01*
X146448660Y-69831153D01*
X146448661Y-69831156D01*
X146448664Y-69831159D01*
X146612276Y-70022724D01*
X146760566Y-70149375D01*
X146803843Y-70186338D01*
X146803846Y-70186339D01*
X147018640Y-70317966D01*
X147251389Y-70414373D01*
X147496352Y-70473183D01*
X147747500Y-70492949D01*
X147998648Y-70473183D01*
X148243611Y-70414373D01*
X148476359Y-70317966D01*
X148691159Y-70186336D01*
X148882724Y-70022724D01*
X149046336Y-69831159D01*
X149177966Y-69616359D01*
X149274373Y-69383611D01*
X149333183Y-69138648D01*
X149352949Y-68887500D01*
X149333183Y-68636352D01*
X149274373Y-68391389D01*
X149177966Y-68158641D01*
X149177966Y-68158640D01*
X149046339Y-67943846D01*
X149046338Y-67943843D01*
X149009375Y-67900566D01*
X148882724Y-67752276D01*
X148756071Y-67644104D01*
X148691156Y-67588661D01*
X148691153Y-67588660D01*
X148476359Y-67457033D01*
X148243610Y-67360626D01*
X147998651Y-67301817D01*
X147747500Y-67282051D01*
X147496348Y-67301817D01*
X147251389Y-67360626D01*
X147018640Y-67457033D01*
X146803846Y-67588660D01*
X146803843Y-67588661D01*
X146612276Y-67752276D01*
X146448661Y-67943843D01*
X146448660Y-67943846D01*
X146317033Y-68158640D01*
X146220626Y-68391389D01*
X146161817Y-68636348D01*
X146142051Y-68887500D01*
X136163000Y-68887500D01*
X136163000Y-65699996D01*
X143994435Y-65699996D01*
X143994435Y-65700003D01*
X144014630Y-65879249D01*
X144014631Y-65879254D01*
X144074211Y-66049523D01*
X144170184Y-66202262D01*
X144297738Y-66329816D01*
X144450478Y-66425789D01*
X144620745Y-66485368D01*
X144620750Y-66485369D01*
X144799996Y-66505565D01*
X144800000Y-66505565D01*
X144800004Y-66505565D01*
X144979249Y-66485369D01*
X144979252Y-66485368D01*
X144979255Y-66485368D01*
X145149522Y-66425789D01*
X145302262Y-66329816D01*
X145429816Y-66202262D01*
X145525789Y-66049522D01*
X145585368Y-65879255D01*
X145605565Y-65700000D01*
X145585368Y-65520745D01*
X145525789Y-65350478D01*
X145429816Y-65197738D01*
X145302262Y-65070184D01*
X145149523Y-64974211D01*
X144979254Y-64914631D01*
X144979249Y-64914630D01*
X144800004Y-64894435D01*
X144799996Y-64894435D01*
X144620750Y-64914630D01*
X144620745Y-64914631D01*
X144450476Y-64974211D01*
X144297737Y-65070184D01*
X144170184Y-65197737D01*
X144074211Y-65350476D01*
X144014631Y-65520745D01*
X144014630Y-65520750D01*
X143994435Y-65699996D01*
X136163000Y-65699996D01*
X136163000Y-60174500D01*
X136182685Y-60107461D01*
X136235489Y-60061706D01*
X136287000Y-60050500D01*
X157538580Y-60050500D01*
X157605619Y-60070185D01*
G37*
%TD.AperFunction*%
%TD*%
M02*
