%TF.GenerationSoftware,KiCad,Pcbnew,8.0.7*%
%TF.CreationDate,2024-12-30T07:44:03-08:00*%
%TF.ProjectId,motion-play-v3,6d6f7469-6f6e-42d7-906c-61792d76332e,rev?*%
%TF.SameCoordinates,Original*%
%TF.FileFunction,Copper,L4,Bot*%
%TF.FilePolarity,Positive*%
%FSLAX46Y46*%
G04 Gerber Fmt 4.6, Leading zero omitted, Abs format (unit mm)*
G04 Created by KiCad (PCBNEW 8.0.7) date 2024-12-30 07:44:03*
%MOMM*%
%LPD*%
G01*
G04 APERTURE LIST*
%TA.AperFunction,ComponentPad*%
%ADD10C,2.200000*%
%TD*%
%TA.AperFunction,WasherPad*%
%ADD11C,3.250000*%
%TD*%
%TA.AperFunction,ComponentPad*%
%ADD12C,2.000000*%
%TD*%
%TA.AperFunction,ViaPad*%
%ADD13C,0.600000*%
%TD*%
%TA.AperFunction,Conductor*%
%ADD14C,0.300000*%
%TD*%
G04 APERTURE END LIST*
D10*
%TO.P,J2,GND*%
%TO.N,N/C*%
X147747500Y-68887500D03*
%TO.P,J2,5V*%
X147747500Y-74887500D03*
%TO.P,J2,2,5V*%
%TO.N,/+5V*%
X162497500Y-80887500D03*
%TO.P,J2,1,GND*%
%TO.N,/GND*%
X167497500Y-80887500D03*
D11*
%TO.P,J2,*%
%TO.N,*%
X158997500Y-61887500D03*
%TD*%
D12*
%TO.P,U2,1,3v*%
%TO.N,Net-(3V2-Pad1)*%
X164700000Y-112100000D03*
%TO.P,U2,2,1*%
%TO.N,Net-(U2-1)*%
X164700000Y-114640000D03*
%TO.P,U2,3,2*%
%TO.N,Net-(J3-Pin_2)*%
X164700000Y-117180000D03*
%TO.P,U2,4,3*%
%TO.N,Net-(U2-3)*%
X164700000Y-119720000D03*
%TO.P,U2,5,10*%
%TO.N,Net-(U2-10)*%
X164700000Y-122260000D03*
%TO.P,U2,6,11*%
%TO.N,Net-(J4-Pin_3)*%
X164700000Y-124800000D03*
%TO.P,U2,7,12*%
%TO.N,Net-(J6-Pin_3)*%
X164700000Y-127340000D03*
%TO.P,U2,8,13*%
%TO.N,Net-(J8-Pin_3)*%
X164700000Y-129880000D03*
%TO.P,U2,9,NC*%
%TO.N,unconnected-(U2-NC-Pad9)*%
X164700000Y-132420000D03*
%TO.P,U2,10,NC*%
%TO.N,unconnected-(U2-NC-Pad10)*%
X164700000Y-134960000D03*
%TO.P,U2,11,GND*%
%TO.N,/GND*%
X164700000Y-137500000D03*
%TO.P,U2,12,5V*%
%TO.N,/+5V*%
X164700000Y-140040000D03*
%TO.P,U2,13,GND*%
%TO.N,/GND*%
X141838136Y-112100000D03*
%TO.P,U2,14,GND*%
X141838136Y-114640000D03*
%TO.P,U2,15,43*%
%TO.N,/SDA*%
X141838136Y-117180000D03*
%TO.P,U2,16,44*%
%TO.N,/SCL*%
X141838136Y-119720000D03*
%TO.P,U2,17,18*%
%TO.N,Net-(U2-18)*%
X141838136Y-122260000D03*
%TO.P,U2,18,17*%
%TO.N,Net-(U2-17)*%
X141838136Y-124800000D03*
%TO.P,U2,19,21*%
%TO.N,Net-(U2-21)*%
X141838136Y-127340000D03*
%TO.P,U2,20,16*%
%TO.N,Net-(U2-16)*%
X141838136Y-129880000D03*
%TO.P,U2,21,NC*%
%TO.N,unconnected-(U2-NC-Pad21)*%
X141838136Y-132420000D03*
%TO.P,U2,22,GND*%
%TO.N,/GND*%
X141838136Y-134960000D03*
%TO.P,U2,23,GND*%
X141838136Y-137500000D03*
%TO.P,U2,24,3v*%
%TO.N,Net-(3V1-Pad1)*%
X141838136Y-140040000D03*
%TD*%
D13*
%TO.N,/+3.3V*%
X156100000Y-93300000D03*
%TO.N,Net-(U2-18)*%
X167200000Y-109400000D03*
%TO.N,Net-(U2-17)*%
X167100000Y-110300000D03*
%TO.N,Net-(U2-21)*%
X167200000Y-114200000D03*
%TO.N,/GND*%
X161400000Y-86200000D03*
%TO.N,/+3.3V*%
X137000000Y-105500000D03*
X138900000Y-105500000D03*
%TO.N,/GND*%
X141500000Y-100700000D03*
%TO.N,/+3.3V*%
X141500000Y-99700000D03*
X156075000Y-89922500D03*
%TO.N,/GND*%
X154125001Y-90049173D03*
X148875000Y-86322500D03*
X155475000Y-87022500D03*
X156075000Y-86422500D03*
%TO.N,/+3.3V*%
X144800000Y-65700000D03*
X144700000Y-71800000D03*
X144800000Y-77700000D03*
X144800000Y-83600000D03*
X144600000Y-90000000D03*
X144800000Y-95900000D03*
X147197500Y-100200000D03*
%TO.N,/GND*%
X151097500Y-100200000D03*
X152597500Y-100400000D03*
X162597500Y-100200000D03*
%TO.N,/+5V*%
X160497500Y-94900000D03*
X161397500Y-90200000D03*
%TD*%
D14*
%TO.N,Net-(U2-18)*%
X161200000Y-109400000D02*
X148340000Y-122260000D01*
X167200000Y-109400000D02*
X161200000Y-109400000D01*
X148340000Y-122260000D02*
X141838136Y-122260000D01*
%TO.N,Net-(U2-17)*%
X146700000Y-124800000D02*
X141838136Y-124800000D01*
X161250000Y-110250000D02*
X146700000Y-124800000D01*
X167100000Y-110300000D02*
X167050000Y-110250000D01*
X167050000Y-110250000D02*
X161250000Y-110250000D01*
%TO.N,Net-(U2-21)*%
X167200000Y-112690811D02*
X165259189Y-110750000D01*
X161550000Y-110750000D02*
X146000000Y-126300000D01*
X165259189Y-110750000D02*
X161550000Y-110750000D01*
X167200000Y-114200000D02*
X167200000Y-112690811D01*
X146000000Y-126300000D02*
X142878136Y-126300000D01*
X142878136Y-126300000D02*
X141838136Y-127340000D01*
%TD*%
M02*
