M48
; DRILL file {KiCad 8.0.7} date 2024-12-30T07:44:09-0800
; FORMAT={-:-/ absolute / metric / decimal}
; #@! TF.CreationDate,2024-12-30T07:44:09-08:00
; #@! TF.GenerationSoftware,Kicad,Pcbnew,8.0.7
; #@! TF.FileFunction,MixedPlating,1,4
FMAT,2
METRIC
; #@! TA.AperFunction,Plated,PTH,ViaDrill
T1C0.300
; #@! TA.AperFunction,Plated,PTH,ComponentDrill
T2C1.000
; #@! TA.AperFunction,Plated,PTH,ComponentDrill
T3C1.200
; #@! TA.AperFunction,NonPlated,NPTH,ComponentDrill
T4C2.250
%
G90
G05
T1
X137.0Y-105.5
X138.9Y-105.5
X141.5Y-99.7
X141.5Y-100.7
X144.6Y-90.0
X144.7Y-71.8
X144.8Y-65.7
X144.8Y-77.7
X144.8Y-83.6
X144.8Y-95.9
X147.197Y-100.2
X148.875Y-86.322
X151.097Y-100.2
X152.597Y-100.4
X154.125Y-90.049
X155.475Y-87.022
X156.075Y-86.422
X156.075Y-89.922
X156.1Y-93.3
X160.498Y-94.9
X161.397Y-90.2
X161.4Y-86.2
X162.597Y-100.2
X167.1Y-110.3
X167.2Y-109.4
X167.2Y-114.2
T2
X141.838Y-112.1
X141.838Y-114.64
X141.838Y-117.18
X141.838Y-119.72
X141.838Y-122.26
X141.838Y-124.8
X141.838Y-127.34
X141.838Y-129.88
X141.838Y-132.42
X141.838Y-134.96
X141.838Y-137.5
X141.838Y-140.04
X164.7Y-112.1
X164.7Y-114.64
X164.7Y-117.18
X164.7Y-119.72
X164.7Y-122.26
X164.7Y-124.8
X164.7Y-127.34
X164.7Y-129.88
X164.7Y-132.42
X164.7Y-134.96
X164.7Y-137.5
X164.7Y-140.04
T3
X147.748Y-68.888
X147.748Y-74.888
X162.498Y-80.888
X167.498Y-80.888
T4
X158.998Y-61.887
M30
